# xmcd
#
# Track frame offsets:
#	150
#	17127
#	31902
#	45915
#	61132
#	76242
#	87682
#	100707
#	118152
#	129615
#	147775
#	165005
#
# Disc length: 2413
#
# Revision: 2
# Processed by: cddbd v1.5.1PL0 Copyright (c) Steve Scherf et al.
# Submitted via: CDex 1.40Beta9
# Normalized: r0:TDELIM( - ),TSWAP
#
DISCID=8c096b0c
DTITLE=Various Artist - The Best Of New Country Love Songs
DYEAR=2000
DGENRE=Country
TTITLE0=Lorrie Morgan - Back In Your Arms Again
TTITLE1=Keith Whitley - I Wonder Do You Think Of Me
TTITLE2=Toby Keith - He Ain't Worth Missing
TTITLE3=Mark Chestnut - I Just Wanted You To Know
TTITLE4=McBride and The Ride - Sacred Ground
TTITLE5=Patty Loveless - I'm Falling In Love
TTITLE6=Don Williams - True Love
TTITLE7=John Anderson - When It Comes To You
TTITLE8=Tracy Byrd - Hold'n Heaven
TTITLE9=Billy Ray Cyrus - In The Heart Of A Woman
TTITLE10=Earl Thomas Conley - Love Out Loud
TTITLE11=Alabama - Forever's As Far As I'll Go
EXTD=YEAR: 2000 ID3G: 2
EXTT0=
EXTT1=
EXTT2=
EXTT3=
EXTT4=
EXTT5=
EXTT6=
EXTT7=
EXTT8=
EXTT9=
EXTT10=
EXTT11=
PLAYORDER=
